<svg xmlns="http://www.w3.org/2000/svg" xmlns:xlink="http://www.w3.org/1999/xlink" version="1.2" width="190.00mm" height="33.14mm" viewBox="0.0000 -0.0210 108.1205 18.8596">
<style type="text/css">
<![CDATA[
tspan { white-space: pre; }
]]>
</style>
<g transform="translate(8.5358, 5.7790)">
<line stroke-linejoin="round" stroke-linecap="round" stroke-width="0.1000" stroke="currentColor" x1="0.0500" y1="0" x2="99.5346" y2="0"/>
</g>
<g transform="translate(8.5358, 4.7790)">
<line stroke-linejoin="round" stroke-linecap="round" stroke-width="0.1000" stroke="currentColor" x1="0.0500" y1="0" x2="99.5346" y2="0"/>
</g>
<g transform="translate(8.5358, 3.7790)">
<line stroke-linejoin="round" stroke-linecap="round" stroke-width="0.1000" stroke="currentColor" x1="0.0500" y1="0" x2="99.5346" y2="0"/>
</g>
<g transform="translate(8.5358, 2.7790)">
<line stroke-linejoin="round" stroke-linecap="round" stroke-width="0.1000" stroke="currentColor" x1="0.0500" y1="0" x2="99.5346" y2="0"/>
</g>
<g transform="translate(8.5358, 1.7790)">
<line stroke-linejoin="round" stroke-linecap="round" stroke-width="0.1000" stroke="currentColor" x1="0.0500" y1="0" x2="99.5346" y2="0"/>
</g>
<g transform="translate(107.9305, 3.7790)">
<rect x="0.0000" y="-2.0000" width="0.1900" height="4.0000" ry="0.0000" fill="currentColor"/>
</g>
<g transform="translate(84.1401, 3.7790)">
<rect x="-0.0650" y="0.2590" width="0.1300" height="3.0743" ry="0.0400" fill="currentColor"/>
</g>
<a style="color:inherit;" xlink:href="textedit:///home/alex/Projects/Abridged-Sunday-Matins/Materials/god-the-lord.ly:20:43:51">
<g transform="translate(83.6200, 9.2790)">
<text font-family="serif" font-size="2.4697" text-anchor="start" fill="currentColor">
<tspan>to</tspan>
</text>
</g>
</a>
<a style="color:inherit;" xlink:href="textedit:///home/alex/Projects/Abridged-Sunday-Matins/Materials/god-the-lord.ly:10:23:31">
<g transform="translate(84.0751, 3.7790)">
<path transform="scale(0.0040, -0.0040)" d="M314 65c0 23 -19 41 -42 41c-39 0 -204 -110 -231 -143c-7 -8 -10 -18 -10 -28c0 -23 19 -41 42 -41c39 0 203 110 230 143c7 8 11 18 11 28zM262 136c41 0 82 -14 82 -71c0 -26 -16 -112 -74 -151c-25 -17 -87 -50 -187 -50c-41 0 -83 14 -83 71c0 26 16 112 74 151
c25 17 88 50 188 50z" fill="currentColor"/>
</g>
</a>
<g transform="translate(72.5425, 3.7790)">
<rect x="-0.0650" y="-0.7410" width="0.1300" height="3.2410" ry="0.0400" fill="currentColor"/>
</g>
<a style="color:inherit;" xlink:href="textedit:///home/alex/Projects/Abridged-Sunday-Matins/Materials/god-the-lord.ly:20:38:46">
<g transform="translate(71.1005, 9.2790)">
<text font-family="serif" font-size="2.4697" text-anchor="start" fill="currentColor">
<tspan>self</tspan>
</text>
</g>
</a>
<a style="color:inherit;" xlink:href="textedit:///home/alex/Projects/Abridged-Sunday-Matins/Materials/god-the-lord.ly:10:20:28">
<g transform="translate(72.4775, 2.7790)">
<path transform="scale(0.0040, -0.0040)" d="M314 65c0 23 -19 41 -42 41c-39 0 -204 -110 -231 -143c-7 -8 -10 -18 -10 -28c0 -23 19 -41 42 -41c39 0 203 110 230 143c7 8 11 18 11 28zM262 136c41 0 82 -14 82 -71c0 -26 -16 -112 -74 -151c-25 -17 -87 -50 -187 -50c-41 0 -83 14 -83 71c0 26 16 112 74 151
c25 17 88 50 188 50z" fill="currentColor"/>
</g>
</a>
<g transform="translate(65.1034, 3.7790)">
<rect x="-0.0650" y="-0.3139" width="0.1300" height="3.3139" ry="0.0400" fill="currentColor"/>
</g>
<a style="color:inherit;" xlink:href="textedit:///home/alex/Projects/Abridged-Sunday-Matins/Materials/god-the-lord.ly:20:31:39">
<g transform="translate(63.1639, 9.2790)">
<text font-family="serif" font-size="2.4697" text-anchor="start" fill="currentColor">
<tspan>Him</tspan>
</text>
</g>
</a>
<a style="color:inherit;" xlink:href="textedit:///home/alex/Projects/Abridged-Sunday-Matins/Materials/god-the-lord.ly:10:16:24">
<g transform="translate(65.0384, 3.2790)">
<path transform="scale(0.0040, -0.0040)" d="M218 136c66 0 108 -36 108 -89c0 -89 -113 -183 -218 -183c-66 0 -108 36 -108 89c0 89 113 183 218 183z" fill="currentColor"/>
</g>
</a>
<g transform="translate(57.6644, 3.7790)">
<rect x="-0.0650" y="0.1861" width="0.1300" height="3.1472" ry="0.0400" fill="currentColor"/>
</g>
<a style="color:inherit;" xlink:href="textedit:///home/alex/Projects/Abridged-Sunday-Matins/Materials/god-the-lord.ly:20:24:32">
<g transform="translate(54.3762, 9.2790)">
<text font-family="serif" font-size="2.4697" text-anchor="start" fill="currentColor">
<tspan>vealed</tspan>
</text>
</g>
</a>
<a style="color:inherit;" xlink:href="textedit:///home/alex/Projects/Abridged-Sunday-Matins/Materials/god-the-lord.ly:10:14:22">
<g transform="translate(57.5994, 3.7790)">
<path transform="scale(0.0040, -0.0040)" d="M218 136c66 0 108 -36 108 -89c0 -89 -113 -183 -218 -183c-66 0 -108 36 -108 89c0 89 113 183 218 183z" fill="currentColor"/>
</g>
</a>
<a style="color:inherit;" xlink:href="textedit:///home/alex/Projects/Abridged-Sunday-Matins/Materials/god-the-lord.ly:20:35:43">
<g transform="translate(69.3288, 9.2790)">
<rect x="0.0000" y="-0.5500" width="0.6600" height="0.1300" ry="0.0400" fill="currentColor"/>
</g>
</a>
<a style="color:inherit;" xlink:href="textedit:///home/alex/Projects/Abridged-Sunday-Matins/Materials/god-the-lord.ly:20:21:29">
<g transform="translate(52.8783, 9.2790)">
<rect x="0.0000" y="-0.5500" width="0.6600" height="0.1300" ry="0.0400" fill="currentColor"/>
</g>
</a>
<g transform="translate(97.2351, 3.7790)">
<rect x="-0.0650" y="-3.0000" width="0.1300" height="3.2410" ry="0.0400" fill="currentColor"/>
</g>
<a style="color:inherit;" xlink:href="textedit:///home/alex/Projects/Abridged-Sunday-Matins/Materials/god-the-lord.ly:20:46:54">
<g transform="translate(94.0409, 9.2790)">
<text font-family="serif" font-size="2.4697" text-anchor="start" fill="currentColor">
<tspan>us.</tspan>
</text>
</g>
<g transform="translate(97.9528, 9.2790)">
<text font-family="serif" font-size="2.4697" text-anchor="start" fill="currentColor">
<tspan>*</tspan>
</text>
</g>
</a>
<a style="color:inherit;" xlink:href="textedit:///home/alex/Projects/Abridged-Sunday-Matins/Materials/god-the-lord.ly:10:25:33">
<g transform="translate(95.9228, 4.2790)">
<path transform="scale(0.0040, -0.0040)" d="M314 65c0 23 -19 41 -42 41c-39 0 -204 -110 -231 -143c-7 -8 -10 -18 -10 -28c0 -23 19 -41 42 -41c39 0 203 110 230 143c7 8 11 18 11 28zM262 136c41 0 82 -14 82 -71c0 -26 -16 -112 -74 -151c-25 -17 -87 -50 -187 -50c-41 0 -83 14 -83 71c0 26 16 112 74 151
c25 17 88 50 188 50z" fill="currentColor"/>
</g>
</a>
<g transform="translate(28.8141, 3.7790)">
<rect x="-0.0650" y="-2.0000" width="0.1300" height="3.3139" ry="0.0400" fill="currentColor"/>
</g>
<a style="color:inherit;" xlink:href="textedit:///home/alex/Projects/Abridged-Sunday-Matins/Materials/god-the-lord.ly:10:4:12">
<g transform="translate(27.5749, 5.2790)">
<path transform="scale(0.0040, -0.0040)" d="M218 136c66 0 108 -36 108 -89c0 -89 -113 -183 -218 -183c-66 0 -108 36 -108 89c0 89 113 183 218 183z" fill="currentColor"/>
</g>
</a>
<a style="color:inherit;" xlink:href="textedit:///home/alex/Projects/Abridged-Sunday-Matins/Materials/god-the-lord.ly:20:5:13">
<g transform="translate(26.3491, 9.2790)">
<text font-family="serif" font-size="2.4697" text-anchor="start" fill="currentColor">
<tspan>the</tspan>
</text>
</g>
</a>
<g transform="translate(21.1251, 3.7790)">
<rect x="-0.0650" y="-1.0000" width="0.1300" height="3.3139" ry="0.0400" fill="currentColor"/>
</g>
<a style="color:inherit;" xlink:href="textedit:///home/alex/Projects/Abridged-Sunday-Matins/Materials/god-the-lord.ly:20:1:9">
<g transform="translate(18.1821, 9.2790)">
<text font-family="serif" font-size="2.4697" text-anchor="start" fill="currentColor">
<tspan>God</tspan>
</text>
</g>
</a>
<g transform="translate(16.1858, 3.7790)">
<path transform="scale(0.0040, -0.0040)" d="M250 262c116 0 176 -106 176 -163c0 -40 -30 -72 -67 -72c-31 0 -75 25 -75 75c0 38 27 77 72 77c4 0 9 0 14 -1c-28 37 -72 59 -120 59c-106 0 -113 -73 -113 -186v-51v-51c0 -113 7 -187 113 -187c80 0 139 70 158 151c2 7 7 10 12 10c6 0 13 -4 13 -12
c0 -22 -50 -174 -183 -174c-59 0 -250 19 -250 263c0 62 18 262 250 262z" fill="currentColor"/>
</g>
<a style="color:inherit;" xlink:href="textedit:///home/alex/Projects/Abridged-Sunday-Matins/Materials/god-the-lord.ly:4:1:9">
<g transform="translate(12.8358, 1.7790)">
<path transform="scale(0.0040, -0.0040)" d="M0 119c0 8 5 15 13 18l46 17v158c0 10 8 19 18 19s19 -9 19 -19v-145l83 31v158c0 10 9 19 19 19s18 -9 18 -19v-145l32 12c2 1 5 1 7 1c11 0 20 -9 20 -20v-60c0 -8 -5 -16 -13 -19l-46 -16v-160l32 11c2 1 5 1 7 1c11 0 20 -9 20 -20v-60c0 -8 -5 -15 -13 -18l-46 -17
v-158c0 -10 -8 -19 -18 -19s-19 9 -19 19v145l-83 -31v-158c0 -10 -9 -19 -19 -19s-18 9 -18 19v145l-32 -12c-2 -1 -5 -1 -7 -1c-11 0 -20 9 -20 20v60c0 8 5 16 13 19l46 16v160l-32 -11c-2 -1 -5 -1 -7 -1c-11 0 -20 9 -20 20v60zM179 95l-83 -30v-160l83 30v160z" fill="currentColor"/>
</g>
<g transform="translate(13.9358, 3.2790)">
<path transform="scale(0.0040, -0.0040)" d="M0 119c0 8 5 15 13 18l46 17v158c0 10 8 19 18 19s19 -9 19 -19v-145l83 31v158c0 10 9 19 19 19s18 -9 18 -19v-145l32 12c2 1 5 1 7 1c11 0 20 -9 20 -20v-60c0 -8 -5 -16 -13 -19l-46 -16v-160l32 11c2 1 5 1 7 1c11 0 20 -9 20 -20v-60c0 -8 -5 -15 -13 -18l-46 -17
v-158c0 -10 -8 -19 -18 -19s-19 9 -19 19v145l-83 -31v-158c0 -10 -9 -19 -19 -19s-18 9 -18 19v145l-32 -12c-2 -1 -5 -1 -7 -1c-11 0 -20 9 -20 20v60c0 8 5 16 13 19l46 16v160l-32 -11c-2 -1 -5 -1 -7 -1c-11 0 -20 9 -20 20v60zM179 95l-83 -30v-160l83 30v160z" fill="currentColor"/>
</g>
</a>
<g transform="translate(9.3358, 4.7790)">
<path transform="scale(0.0040, -0.0040)" d="M266 -635h-6c-108 0 -195 88 -195 197c0 58 53 103 112 103c54 0 95 -47 95 -103c0 -52 -43 -95 -95 -95c-11 0 -21 2 -31 6c26 -39 68 -65 117 -65h4zM461 -203c68 24 113 90 113 164c0 90 -66 179 -173 190c19 -89 48 -242 60 -354zM74 28c0 -145 141 -247 264 -247
c1 0 47 0 82 6c-7 64 -29 203 -63 364c-79 -8 -124 -61 -124 -119c0 -44 25 -91 81 -123c5 -5 7 -10 7 -15c0 -11 -10 -22 -22 -22c-15 0 -126 62 -126 187c0 88 58 174 160 197c-14 58 -29 117 -46 175c-107 -121 -213 -243 -213 -403zM250 553c-29 96 -52 170 -52 346
c0 115 55 224 149 292c6 5 14 5 20 0c68 -80 133 -245 133 -358c0 -143 -86 -255 -180 -364c21 -68 39 -138 56 -207c2 0 7 1 13 1c155 0 256 -128 256 -261c0 -113 -74 -212 -180 -246c3 -35 5 -70 5 -105c0 -19 -1 -39 -2 -58c-7 -119 -88 -225 -202 -228l1 43
c93 2 153 92 159 191c1 18 2 37 2 55c0 31 -1 61 -4 92c-5 -1 -44 -8 -89 -8c-193 0 -333 180 -333 374c0 177 131 306 248 441zM428 916c0 34 1 66 -20 129c-99 -48 -162 -149 -162 -259c0 -52 12 -115 36 -194c80 97 146 198 146 324z" fill="currentColor"/>
</g>
<a style="color:inherit;" xlink:href="textedit:///home/alex/Projects/Abridged-Sunday-Matins/Materials/god-the-lord.ly:10:1:9">
<g transform="translate(19.8858, 6.2790)">
<path transform="scale(0.0040, -0.0040)" d="M218 136c66 0 108 -36 108 -89c0 -89 -113 -183 -218 -183c-66 0 -108 36 -108 89c0 89 113 183 218 183z" fill="currentColor"/>
</g>
</a>
<g transform="translate(51.3813, 3.7790)">
<rect x="-0.0650" y="-3.0000" width="0.1300" height="3.3139" ry="0.0400" fill="currentColor"/>
</g>
<a style="color:inherit;" xlink:href="textedit:///home/alex/Projects/Abridged-Sunday-Matins/Materials/god-the-lord.ly:20:18:26">
<g transform="translate(49.5479, 9.2790)">
<text font-family="serif" font-size="2.4697" text-anchor="start" fill="currentColor">
<tspan>re</tspan>
</text>
</g>
</a>
<a style="color:inherit;" xlink:href="textedit:///home/alex/Projects/Abridged-Sunday-Matins/Materials/god-the-lord.ly:10:12:20">
<g transform="translate(50.1420, 4.2790)">
<path transform="scale(0.0040, -0.0040)" d="M218 136c66 0 108 -36 108 -89c0 -89 -113 -183 -218 -183c-66 0 -108 36 -108 89c0 89 113 183 218 183z" fill="currentColor"/>
</g>
</a>
<g transform="translate(43.9422, 3.7790)">
<rect x="-0.0650" y="-3.0000" width="0.1300" height="3.3139" ry="0.0400" fill="currentColor"/>
</g>
<a style="color:inherit;" xlink:href="textedit:///home/alex/Projects/Abridged-Sunday-Matins/Materials/god-the-lord.ly:20:14:22">
<g transform="translate(41.3065, 9.2790)">
<text font-family="serif" font-size="2.4697" text-anchor="start" fill="currentColor">
<tspan>has</tspan>
</text>
</g>
</a>
<a style="color:inherit;" xlink:href="textedit:///home/alex/Projects/Abridged-Sunday-Matins/Materials/god-the-lord.ly:10:10:18">
<g transform="translate(42.7030, 4.2790)">
<path transform="scale(0.0040, -0.0040)" d="M218 136c66 0 108 -36 108 -89c0 -89 -113 -183 -218 -183c-66 0 -108 36 -108 89c0 89 113 183 218 183z" fill="currentColor"/>
</g>
</a>
<g transform="translate(36.5032, 3.7790)">
<rect x="-0.0650" y="-3.0000" width="0.1300" height="3.3139" ry="0.0400" fill="currentColor"/>
</g>
<a style="color:inherit;" xlink:href="textedit:///home/alex/Projects/Abridged-Sunday-Matins/Materials/god-the-lord.ly:20:9:17">
<g transform="translate(33.0992, 9.2790)">
<text font-family="serif" font-size="2.4697" text-anchor="start" fill="currentColor">
<tspan>Lord</tspan>
</text>
</g>
</a>
<a style="color:inherit;" xlink:href="textedit:///home/alex/Projects/Abridged-Sunday-Matins/Materials/god-the-lord.ly:10:8:16">
<g transform="translate(35.2639, 4.2790)">
<path transform="scale(0.0040, -0.0040)" d="M218 136c66 0 108 -36 108 -89c0 -89 -113 -183 -218 -183c-66 0 -108 36 -108 89c0 89 113 183 218 183z" fill="currentColor"/>
</g>
</a>
<g transform="translate(0.0000, 15.1037)">
<line stroke-linejoin="round" stroke-linecap="round" stroke-width="0.1000" stroke="currentColor" x1="0.0500" y1="0" x2="108.0705" y2="0"/>
</g>
<g transform="translate(0.0000, 14.1037)">
<line stroke-linejoin="round" stroke-linecap="round" stroke-width="0.1000" stroke="currentColor" x1="0.0500" y1="0" x2="108.0705" y2="0"/>
</g>
<g transform="translate(0.0000, 13.1037)">
<line stroke-linejoin="round" stroke-linecap="round" stroke-width="0.1000" stroke="currentColor" x1="0.0500" y1="0" x2="108.0705" y2="0"/>
</g>
<g transform="translate(0.0000, 12.1037)">
<line stroke-linejoin="round" stroke-linecap="round" stroke-width="0.1000" stroke="currentColor" x1="0.0500" y1="0" x2="108.0705" y2="0"/>
</g>
<g transform="translate(0.0000, 11.1037)">
<line stroke-linejoin="round" stroke-linecap="round" stroke-width="0.1000" stroke="currentColor" x1="0.0500" y1="0" x2="108.0705" y2="0"/>
</g>
<g transform="translate(107.9305, 13.1037)">
<rect x="0.0000" y="-2.0000" width="0.1900" height="4.0000" ry="0.0000" fill="currentColor"/>
</g>
<g transform="translate(107.4405, 13.1037)">
<rect x="0.0000" y="-2.0000" width="0.1900" height="4.0000" ry="0.0000" fill="currentColor"/>
</g>
<a style="color:inherit;" xlink:href="textedit:///home/alex/Projects/Abridged-Sunday-Matins/Materials/god-the-lord.ly:21:36:44">
<g transform="translate(68.4034, 18.8139)">
<text font-family="serif" font-size="2.4697" text-anchor="start" fill="currentColor">
<tspan>Name</tspan>
</text>
</g>
</a>
<a style="color:inherit;" xlink:href="textedit:///home/alex/Projects/Abridged-Sunday-Matins/Materials/god-the-lord.ly:21:44:52">
<g transform="translate(87.9689, 18.8139)">
<text font-family="serif" font-size="2.4697" text-anchor="start" fill="currentColor">
<tspan>the</tspan>
</text>
</g>
</a>
<g transform="translate(72.4927, 13.1037)">
<rect x="-0.0650" y="-3.0000" width="0.1300" height="3.2410" ry="0.0400" fill="currentColor"/>
</g>
<a style="color:inherit;" xlink:href="textedit:///home/alex/Projects/Abridged-Sunday-Matins/Materials/god-the-lord.ly:11:24:32">
<g transform="translate(82.2257, 14.1037)">
<path transform="scale(0.0040, -0.0040)" d="M218 136c66 0 108 -36 108 -89c0 -89 -113 -183 -218 -183c-66 0 -108 36 -108 89c0 89 113 183 218 183z" fill="currentColor"/>
</g>
</a>
<a style="color:inherit;" xlink:href="textedit:///home/alex/Projects/Abridged-Sunday-Matins/Materials/god-the-lord.ly:21:41:49">
<g transform="translate(81.6998, 18.8139)">
<text font-family="serif" font-size="2.4697" text-anchor="start" fill="currentColor">
<tspan>of</tspan>
</text>
</g>
</a>
<g transform="translate(83.4649, 13.1037)">
<rect x="-0.0650" y="-2.5000" width="0.1300" height="3.3139" ry="0.0400" fill="currentColor"/>
</g>
<a style="color:inherit;" xlink:href="textedit:///home/alex/Projects/Abridged-Sunday-Matins/Materials/god-the-lord.ly:11:27:35">
<g transform="translate(89.1946, 14.1037)">
<path transform="scale(0.0040, -0.0040)" d="M218 136c66 0 108 -36 108 -89c0 -89 -113 -183 -218 -183c-66 0 -108 36 -108 89c0 89 113 183 218 183z" fill="currentColor"/>
</g>
</a>
<a style="color:inherit;" xlink:href="textedit:///home/alex/Projects/Abridged-Sunday-Matins/Materials/god-the-lord.ly:11:21:29">
<g transform="translate(71.1803, 13.6037)">
<path transform="scale(0.0040, -0.0040)" d="M314 65c0 23 -19 41 -42 41c-39 0 -204 -110 -231 -143c-7 -8 -10 -18 -10 -28c0 -23 19 -41 42 -41c39 0 203 110 230 143c7 8 11 18 11 28zM262 136c41 0 82 -14 82 -71c0 -26 -16 -112 -74 -151c-25 -17 -87 -50 -187 -50c-41 0 -83 14 -83 71c0 26 16 112 74 151
c25 17 88 50 188 50z" fill="currentColor"/>
</g>
</a>
<g transform="translate(64.2842, 13.1037)">
<rect x="-0.0650" y="0.1861" width="0.1300" height="3.1472" ry="0.0400" fill="currentColor"/>
</g>
<a style="color:inherit;" xlink:href="textedit:///home/alex/Projects/Abridged-Sunday-Matins/Materials/god-the-lord.ly:21:32:40">
<g transform="translate(62.9934, 18.8139)">
<text font-family="serif" font-size="2.4697" text-anchor="start" fill="currentColor">
<tspan>the</tspan>
</text>
</g>
</a>
<a style="color:inherit;" xlink:href="textedit:///home/alex/Projects/Abridged-Sunday-Matins/Materials/god-the-lord.ly:11:19:27">
<g transform="translate(64.2192, 13.1037)">
<path transform="scale(0.0040, -0.0040)" d="M218 136c66 0 108 -36 108 -89c0 -89 -113 -183 -218 -183c-66 0 -108 36 -108 89c0 89 113 183 218 183z" fill="currentColor"/>
</g>
</a>
<g transform="translate(58.4712, 13.1037)">
<rect x="-0.0650" y="-3.0000" width="0.1300" height="3.3139" ry="0.0400" fill="currentColor"/>
</g>
<a style="color:inherit;" xlink:href="textedit:///home/alex/Projects/Abridged-Sunday-Matins/Materials/god-the-lord.ly:21:29:37">
<g transform="translate(56.6891, 18.8139)">
<text font-family="serif" font-size="2.4697" text-anchor="start" fill="currentColor">
<tspan>in</tspan>
</text>
</g>
</a>
<a style="color:inherit;" xlink:href="textedit:///home/alex/Projects/Abridged-Sunday-Matins/Materials/god-the-lord.ly:11:17:25">
<g transform="translate(57.2320, 13.6037)">
<path transform="scale(0.0040, -0.0040)" d="M218 136c66 0 108 -36 108 -89c0 -89 -113 -183 -218 -183c-66 0 -108 36 -108 89c0 89 113 183 218 183z" fill="currentColor"/>
</g>
</a>
<a style="color:inherit;" xlink:href="textedit:///home/alex/Projects/Abridged-Sunday-Matins/Materials/god-the-lord.ly:21:7:15">
<g transform="translate(13.5834, 18.8139)">
<rect x="0.0000" y="-0.5500" width="0.6600" height="0.1300" ry="0.0400" fill="currentColor"/>
</g>
</a>
<g transform="translate(90.4339, 13.1037)">
<rect x="-0.0650" y="-2.5000" width="0.1300" height="3.3139" ry="0.0400" fill="currentColor"/>
</g>
<g transform="translate(97.4760, 13.1037)">
<rect x="-0.0650" y="-2.0000" width="0.1300" height="3.2410" ry="0.0400" fill="currentColor"/>
</g>
<a style="color:inherit;" xlink:href="textedit:///home/alex/Projects/Abridged-Sunday-Matins/Materials/god-the-lord.ly:21:48:56">
<g transform="translate(93.7282, 18.8139)">
<text font-family="serif" font-size="2.4697" text-anchor="start" fill="currentColor">
<tspan>Lord.</tspan>
</text>
</g>
</a>
<a style="color:inherit;" xlink:href="textedit:///home/alex/Projects/Abridged-Sunday-Matins/Materials/god-the-lord.ly:11:29:37">
<g transform="translate(96.1636, 14.6037)">
<path transform="scale(0.0040, -0.0040)" d="M314 65c0 23 -19 41 -42 41c-39 0 -204 -110 -231 -143c-7 -8 -10 -18 -10 -28c0 -23 19 -41 42 -41c39 0 203 110 230 143c7 8 11 18 11 28zM262 136c41 0 82 -14 82 -71c0 -26 -16 -112 -74 -151c-25 -17 -87 -50 -187 -50c-41 0 -83 14 -83 71c0 26 16 112 74 151
c25 17 88 50 188 50z" fill="currentColor"/>
</g>
</a>
<a style="color:inherit;" xlink:href="textedit:///home/alex/Projects/Abridged-Sunday-Matins/Materials/god-the-lord.ly:11:6:14">
<g transform="translate(22.9380, 13.6037)">
<path transform="scale(0.0040, -0.0040)" d="M218 136c66 0 108 -36 108 -89c0 -89 -113 -183 -218 -183c-66 0 -108 36 -108 89c0 89 113 183 218 183z" fill="currentColor"/>
</g>
</a>
<g transform="translate(17.2082, 13.1037)">
<rect x="-0.0650" y="-3.0000" width="0.1300" height="3.3139" ry="0.0400" fill="currentColor"/>
</g>
<a style="color:inherit;" xlink:href="textedit:///home/alex/Projects/Abridged-Sunday-Matins/Materials/god-the-lord.ly:21:10:18">
<g transform="translate(15.2041, 18.8139)">
<text font-family="serif" font-size="2.4697" text-anchor="start" fill="currentColor">
<tspan>ed</tspan>
</text>
</g>
</a>
<a style="color:inherit;" xlink:href="textedit:///home/alex/Projects/Abridged-Sunday-Matins/Materials/god-the-lord.ly:11:4:12">
<g transform="translate(15.9690, 13.6037)">
<path transform="scale(0.0040, -0.0040)" d="M218 136c66 0 108 -36 108 -89c0 -89 -113 -183 -218 -183c-66 0 -108 36 -108 89c0 89 113 183 218 183z" fill="currentColor"/>
</g>
</a>
<g transform="translate(10.2392, 13.1037)">
<rect x="-0.0650" y="-3.0000" width="0.1300" height="3.3139" ry="0.0400" fill="currentColor"/>
</g>
<a style="color:inherit;" xlink:href="textedit:///home/alex/Projects/Abridged-Sunday-Matins/Materials/god-the-lord.ly:21:1:9">
<g transform="translate(6.6817, 18.8139)">
<text font-family="serif" font-size="2.4697" text-anchor="start" fill="currentColor">
<tspan>Bless</tspan>
</text>
</g>
</a>
<a style="color:inherit;" xlink:href="textedit:///home/alex/Projects/Abridged-Sunday-Matins/Materials/god-the-lord.ly:11:1:9">
<g transform="translate(9.0000, 13.6037)">
<path transform="scale(0.0040, -0.0040)" d="M218 136c66 0 108 -36 108 -89c0 -89 -113 -183 -218 -183c-66 0 -108 36 -108 89c0 89 113 183 218 183z" fill="currentColor"/>
</g>
</a>
<g transform="translate(4.3000, 11.1037)">
<path transform="scale(0.0040, -0.0040)" d="M0 119c0 8 5 15 13 18l46 17v158c0 10 8 19 18 19s19 -9 19 -19v-145l83 31v158c0 10 9 19 19 19s18 -9 18 -19v-145l32 12c2 1 5 1 7 1c11 0 20 -9 20 -20v-60c0 -8 -5 -16 -13 -19l-46 -16v-160l32 11c2 1 5 1 7 1c11 0 20 -9 20 -20v-60c0 -8 -5 -15 -13 -18l-46 -17
v-158c0 -10 -8 -19 -18 -19s-19 9 -19 19v145l-83 -31v-158c0 -10 -9 -19 -19 -19s-18 9 -18 19v145l-32 -12c-2 -1 -5 -1 -7 -1c-11 0 -20 9 -20 20v60c0 8 5 16 13 19l46 16v160l-32 -11c-2 -1 -5 -1 -7 -1c-11 0 -20 9 -20 20v60zM179 95l-83 -30v-160l83 30v160z" fill="currentColor"/>
</g>
<g transform="translate(5.4000, 12.6037)">
<path transform="scale(0.0040, -0.0040)" d="M0 119c0 8 5 15 13 18l46 17v158c0 10 8 19 18 19s19 -9 19 -19v-145l83 31v158c0 10 9 19 19 19s18 -9 18 -19v-145l32 12c2 1 5 1 7 1c11 0 20 -9 20 -20v-60c0 -8 -5 -16 -13 -19l-46 -16v-160l32 11c2 1 5 1 7 1c11 0 20 -9 20 -20v-60c0 -8 -5 -15 -13 -18l-46 -17
v-158c0 -10 -8 -19 -18 -19s-19 9 -19 19v145l-83 -31v-158c0 -10 -9 -19 -19 -19s-18 9 -18 19v145l-32 -12c-2 -1 -5 -1 -7 -1c-11 0 -20 9 -20 20v60c0 8 5 16 13 19l46 16v160l-32 -11c-2 -1 -5 -1 -7 -1c-11 0 -20 9 -20 20v60zM179 95l-83 -30v-160l83 30v160z" fill="currentColor"/>
</g>
<g transform="translate(0.8000, 14.1037)">
<path transform="scale(0.0040, -0.0040)" d="M266 -635h-6c-108 0 -195 88 -195 197c0 58 53 103 112 103c54 0 95 -47 95 -103c0 -52 -43 -95 -95 -95c-11 0 -21 2 -31 6c26 -39 68 -65 117 -65h4zM461 -203c68 24 113 90 113 164c0 90 -66 179 -173 190c19 -89 48 -242 60 -354zM74 28c0 -145 141 -247 264 -247
c1 0 47 0 82 6c-7 64 -29 203 -63 364c-79 -8 -124 -61 -124 -119c0 -44 25 -91 81 -123c5 -5 7 -10 7 -15c0 -11 -10 -22 -22 -22c-15 0 -126 62 -126 187c0 88 58 174 160 197c-14 58 -29 117 -46 175c-107 -121 -213 -243 -213 -403zM250 553c-29 96 -52 170 -52 346
c0 115 55 224 149 292c6 5 14 5 20 0c68 -80 133 -245 133 -358c0 -143 -86 -255 -180 -364c21 -68 39 -138 56 -207c2 0 7 1 13 1c155 0 256 -128 256 -261c0 -113 -74 -212 -180 -246c3 -35 5 -70 5 -105c0 -19 -1 -39 -2 -58c-7 -119 -88 -225 -202 -228l1 43
c93 2 153 92 159 191c1 18 2 37 2 55c0 31 -1 61 -4 92c-5 -1 -44 -8 -89 -8c-193 0 -333 180 -333 374c0 177 131 306 248 441zM428 916c0 34 1 66 -20 129c-99 -48 -162 -149 -162 -259c0 -52 12 -115 36 -194c80 97 146 198 146 324z" fill="currentColor"/>
</g>
<a style="color:inherit;" xlink:href="textedit:///home/alex/Projects/Abridged-Sunday-Matins/Materials/god-the-lord.ly:21:13:21">
<g transform="translate(22.6340, 18.8139)">
<text font-family="serif" font-size="2.4697" text-anchor="start" fill="currentColor">
<tspan>is</tspan>
</text>
</g>
</a>
<g transform="translate(51.5022, 13.1037)">
<rect x="-0.0650" y="-2.5000" width="0.1300" height="3.3139" ry="0.0400" fill="currentColor"/>
</g>
<a style="color:inherit;" xlink:href="textedit:///home/alex/Projects/Abridged-Sunday-Matins/Materials/god-the-lord.ly:21:23:31">
<g transform="translate(47.1935, 18.8139)">
<text font-family="serif" font-size="2.4697" text-anchor="start" fill="currentColor">
<tspan>comes</tspan>
</text>
</g>
</a>
<a style="color:inherit;" xlink:href="textedit:///home/alex/Projects/Abridged-Sunday-Matins/Materials/god-the-lord.ly:11:15:23">
<g transform="translate(50.2630, 14.1037)">
<path transform="scale(0.0040, -0.0040)" d="M218 136c66 0 108 -36 108 -89c0 -89 -113 -183 -218 -183c-66 0 -108 36 -108 89c0 89 113 183 218 183z" fill="currentColor"/>
</g>
</a>
<g transform="translate(44.5332, 13.1037)">
<rect x="-0.0650" y="-3.0000" width="0.1300" height="3.3139" ry="0.0400" fill="currentColor"/>
</g>
<a style="color:inherit;" xlink:href="textedit:///home/alex/Projects/Abridged-Sunday-Matins/Materials/god-the-lord.ly:21:19:27">
<g transform="translate(41.3854, 18.8139)">
<text font-family="serif" font-size="2.4697" text-anchor="start" fill="currentColor">
<tspan>who</tspan>
</text>
</g>
</a>
<a style="color:inherit;" xlink:href="textedit:///home/alex/Projects/Abridged-Sunday-Matins/Materials/god-the-lord.ly:11:12:20">
<g transform="translate(43.2940, 13.6037)">
<path transform="scale(0.0040, -0.0040)" d="M218 136c66 0 108 -36 108 -89c0 -89 -113 -183 -218 -183c-66 0 -108 36 -108 89c0 89 113 183 218 183z" fill="currentColor"/>
</g>
</a>
<g transform="translate(29.9798, 13.1037)">
<rect x="-0.0650" y="0.2590" width="0.1300" height="3.0743" ry="0.0400" fill="currentColor"/>
</g>
<g transform="translate(31.7421, 12.6037)">
<path transform="scale(0.0040, -0.0040)" d="M0 0c0 31 25 56 56 56s56 -25 56 -56s-25 -56 -56 -56s-56 25 -56 56z" fill="currentColor"/>
</g>
<a style="color:inherit;" xlink:href="textedit:///home/alex/Projects/Abridged-Sunday-Matins/Materials/god-the-lord.ly:21:16:24">
<g transform="translate(29.1523, 18.8139)">
<text font-family="serif" font-size="2.4697" text-anchor="start" fill="currentColor">
<tspan>he</tspan>
</text>
</g>
</a>
<a style="color:inherit;" xlink:href="textedit:///home/alex/Projects/Abridged-Sunday-Matins/Materials/god-the-lord.ly:11:8:16">
<g transform="translate(29.9148, 13.1037)">
<path transform="scale(0.0040, -0.0040)" d="M314 65c0 23 -19 41 -42 41c-39 0 -204 -110 -231 -143c-7 -8 -10 -18 -10 -28c0 -23 19 -41 42 -41c39 0 203 110 230 143c7 8 11 18 11 28zM262 136c41 0 82 -14 82 -71c0 -26 -16 -112 -74 -151c-25 -17 -87 -50 -187 -50c-41 0 -83 14 -83 71c0 26 16 112 74 151
c25 17 88 50 188 50z" fill="currentColor"/>
</g>
</a>
<g transform="translate(24.1772, 13.1037)">
<rect x="-0.0650" y="-3.0000" width="0.1300" height="3.3139" ry="0.0400" fill="currentColor"/>
</g>
</svg>
