<svg xmlns="http://www.w3.org/2000/svg" xmlns:xlink="http://www.w3.org/1999/xlink" version="1.2" width="141.00mm" height="17.18mm" viewBox="8.5358 -0.0210 80.2375 9.7770">
<style type="text/css">
<![CDATA[
tspan { white-space: pre; }
]]>
</style>
<g transform="translate(8.5358, 5.7790)">
<line stroke-linejoin="round" stroke-linecap="round" stroke-width="0.1000" stroke="currentColor" x1="0.0500" y1="0" x2="80.1875" y2="0"/>
</g>
<g transform="translate(8.5358, 4.7790)">
<line stroke-linejoin="round" stroke-linecap="round" stroke-width="0.1000" stroke="currentColor" x1="0.0500" y1="0" x2="80.1875" y2="0"/>
</g>
<g transform="translate(8.5358, 3.7790)">
<line stroke-linejoin="round" stroke-linecap="round" stroke-width="0.1000" stroke="currentColor" x1="0.0500" y1="0" x2="80.1875" y2="0"/>
</g>
<g transform="translate(8.5358, 2.7790)">
<line stroke-linejoin="round" stroke-linecap="round" stroke-width="0.1000" stroke="currentColor" x1="0.0500" y1="0" x2="80.1875" y2="0"/>
</g>
<g transform="translate(8.5358, 1.7790)">
<line stroke-linejoin="round" stroke-linecap="round" stroke-width="0.1000" stroke="currentColor" x1="0.0500" y1="0" x2="80.1875" y2="0"/>
</g>
<g transform="translate(49.6839, 3.7790)">
<rect x="0.0000" y="-2.0000" width="0.1900" height="4.0000" ry="0.0000" fill="currentColor"/>
</g>
<g transform="translate(88.5833, 3.7790)">
<rect x="0.0000" y="-2.0000" width="0.1900" height="4.0000" ry="0.0000" fill="currentColor"/>
</g>
<g transform="translate(88.0933, 3.7790)">
<rect x="0.0000" y="-2.0000" width="0.1900" height="4.0000" ry="0.0000" fill="currentColor"/>
</g>
<a style="color:inherit;" xlink:href="textedit:///home/alex/Projects/Abridged-Sunday-Matins/Materials/hosts-of-angels.ly:20:22:30">
<g transform="translate(73.4557, 9.3757)">
<text font-family="serif" font-size="2.4697" text-anchor="start" fill="currentColor">
<tspan>mand</tspan>
</text>
</g>
</a>
<a style="color:inherit;" xlink:href="textedit:///home/alex/Projects/Abridged-Sunday-Matins/Materials/hosts-of-angels.ly:9:10:18">
<g transform="translate(64.5030, 4.2790)">
<path transform="scale(0.0040, -0.0040)" d="M218 136c66 0 108 -36 108 -89c0 -89 -113 -183 -218 -183c-66 0 -108 36 -108 89c0 89 113 183 218 183z" fill="currentColor"/>
</g>
</a>
<a style="color:inherit;" xlink:href="textedit:///home/alex/Projects/Abridged-Sunday-Matins/Materials/hosts-of-angels.ly:20:10:18">
<g transform="translate(62.3895, 9.3757)">
<text font-family="serif" font-size="2.4697" text-anchor="start" fill="currentColor">
<tspan>Your</tspan>
</text>
</g>
</a>
<g transform="translate(65.7422, 3.7790)">
<rect x="-0.0650" y="-3.0000" width="0.1300" height="3.3139" ry="0.0400" fill="currentColor"/>
</g>
<a style="color:inherit;" xlink:href="textedit:///home/alex/Projects/Abridged-Sunday-Matins/Materials/hosts-of-angels.ly:9:13:21">
<g transform="translate(70.2111, 4.2790)">
<path transform="scale(0.0040, -0.0040)" d="M218 136c66 0 108 -36 108 -89c0 -89 -113 -183 -218 -183c-66 0 -108 36 -108 89c0 89 113 183 218 183z" fill="currentColor"/>
</g>
</a>
<a style="color:inherit;" xlink:href="textedit:///home/alex/Projects/Abridged-Sunday-Matins/Materials/hosts-of-angels.ly:20:15:23">
<g transform="translate(68.3707, 9.3757)">
<text font-family="serif" font-size="2.4697" text-anchor="start" fill="currentColor">
<tspan>com</tspan>
</text>
</g>
</a>
<g transform="translate(71.4503, 3.7790)">
<rect x="-0.0650" y="-3.0000" width="0.1300" height="3.3139" ry="0.0400" fill="currentColor"/>
</g>
<a style="color:inherit;" xlink:href="textedit:///home/alex/Projects/Abridged-Sunday-Matins/Materials/hosts-of-angels.ly:9:15:23">
<g transform="translate(73.4557, 3.7790)">
<path transform="scale(0.0040, -0.0040)" d="M218 136c66 0 108 -36 108 -89c0 -89 -113 -183 -218 -183c-66 0 -108 36 -108 89c0 89 113 183 218 183z" fill="currentColor"/>
</g>
</a>
<g transform="translate(50.9384, 3.7790)">
<rect x="-0.0650" y="0.2590" width="0.1300" height="3.0743" ry="0.0400" fill="currentColor"/>
</g>
<g transform="translate(59.4892, 3.7790)">
<rect x="-0.0650" y="0.2590" width="0.1300" height="3.0743" ry="0.0400" fill="currentColor"/>
</g>
<a style="color:inherit;" xlink:href="textedit:///home/alex/Projects/Abridged-Sunday-Matins/Materials/hosts-of-angels.ly:9:5:13">
<g transform="translate(55.1488, 3.2790)">
<path transform="scale(0.0040, -0.0040)" d="M314 65c0 23 -19 41 -42 41c-39 0 -204 -110 -231 -143c-7 -8 -10 -18 -10 -28c0 -23 19 -41 42 -41c39 0 203 110 230 143c7 8 11 18 11 28zM262 136c41 0 82 -14 82 -71c0 -26 -16 -112 -74 -151c-25 -17 -87 -50 -187 -50c-41 0 -83 14 -83 71c0 26 16 112 74 151
c25 17 88 50 188 50z" fill="currentColor"/>
</g>
</a>
<g transform="translate(55.2138, 3.7790)">
<rect x="-0.0650" y="-0.2410" width="0.1300" height="3.2410" ry="0.0400" fill="currentColor"/>
</g>
<a style="color:inherit;" xlink:href="textedit:///home/alex/Projects/Abridged-Sunday-Matins/Materials/hosts-of-angels.ly:9:8:16">
<g transform="translate(59.4242, 3.7790)">
<path transform="scale(0.0040, -0.0040)" d="M314 65c0 23 -19 41 -42 41c-39 0 -204 -110 -231 -143c-7 -8 -10 -18 -10 -28c0 -23 19 -41 42 -41c39 0 203 110 230 143c7 8 11 18 11 28zM262 136c41 0 82 -14 82 -71c0 -26 -16 -112 -74 -151c-25 -17 -87 -50 -187 -50c-41 0 -83 14 -83 71c0 26 16 112 74 151
c25 17 88 50 188 50z" fill="currentColor"/>
</g>
</a>
<a style="color:inherit;" xlink:href="textedit:///home/alex/Projects/Abridged-Sunday-Matins/Materials/hosts-of-angels.ly:20:7:15">
<g transform="translate(58.2862, 9.3757)">
<text font-family="serif" font-size="2.4697" text-anchor="start" fill="currentColor">
<tspan>me</tspan>
</text>
</g>
</a>
<a style="color:inherit;" xlink:href="textedit:///home/alex/Projects/Abridged-Sunday-Matins/Materials/hosts-of-angels.ly:8:15:23">
<g transform="translate(39.2265, 3.7790)">
<path stroke-width="0.0800" stroke-linejoin="round" stroke-linecap="round" stroke="currentColor" fill="currentColor" d="M0.6521 -2.6950C1.9971 -3.8876 5.5886 -3.8876 6.9336 -2.6950L6.9336 -2.6950C5.5886 -3.7676 1.9971 -3.7676 0.6521 -2.6950z"/>
</g>
</a>
<a style="color:inherit;" xlink:href="textedit:///home/alex/Projects/Abridged-Sunday-Matins/Materials/hosts-of-angels.ly:9:3:11">
<g transform="translate(50.8734, 3.7790)">
<path stroke-width="0.0800" stroke-linejoin="round" stroke-linecap="round" stroke="currentColor" fill="currentColor" d="M0.6512 -1.2731C1.5983 -2.5980 3.8243 -2.7802 4.9266 -1.6231L4.9266 -1.6231C3.8341 -2.6606 1.6081 -2.4784 0.6512 -1.2731z"/>
</g>
</a>
<a style="color:inherit;" xlink:href="textedit:///home/alex/Projects/Abridged-Sunday-Matins/Materials/hosts-of-angels.ly:9:16:24">
<g transform="translate(73.4557, 3.7790)">
<path stroke-width="0.0800" stroke-linejoin="round" stroke-linecap="round" stroke="currentColor" fill="currentColor" d="M0.7051 -1.1950C2.0244 -2.1231 4.8956 -1.7672 5.9483 -0.5450L5.9483 -0.5450C4.8808 -1.6481 2.0096 -2.0040 0.7051 -1.1950z"/>
</g>
</a>
<a style="color:inherit;" xlink:href="textedit:///home/alex/Projects/Abridged-Sunday-Matins/Materials/hosts-of-angels.ly:9:21:29">
<g transform="translate(83.6221, 4.7790)">
<path transform="scale(0.0040, -0.0040)" d="M314 65c0 23 -19 41 -42 41c-39 0 -204 -110 -231 -143c-7 -8 -10 -18 -10 -28c0 -23 19 -41 42 -41c39 0 203 110 230 143c7 8 11 18 11 28zM262 136c41 0 82 -14 82 -71c0 -26 -16 -112 -74 -151c-25 -17 -87 -50 -187 -50c-41 0 -83 14 -83 71c0 26 16 112 74 151
c25 17 88 50 188 50z" fill="currentColor"/>
</g>
</a>
<a style="color:inherit;" xlink:href="textedit:///home/alex/Projects/Abridged-Sunday-Matins/Materials/hosts-of-angels.ly:9:18:26">
<g transform="translate(78.5298, 4.2790)">
<path transform="scale(0.0040, -0.0040)" d="M218 136c66 0 108 -36 108 -89c0 -89 -113 -183 -218 -183c-66 0 -108 36 -108 89c0 89 113 183 218 183z" fill="currentColor"/>
</g>
</a>
<g transform="translate(79.7690, 3.7790)">
<rect x="-0.0650" y="-3.0000" width="0.1300" height="3.3139" ry="0.0400" fill="currentColor"/>
</g>
<g transform="translate(73.5207, 3.7790)">
<rect x="-0.0650" y="0.1861" width="0.1300" height="3.1472" ry="0.0400" fill="currentColor"/>
</g>
<a style="color:inherit;" xlink:href="textedit:///home/alex/Projects/Abridged-Sunday-Matins/Materials/hosts-of-angels.ly:20:30:38">
<g transform="translate(80.3843, 9.3757)">
<text font-family="serif" font-size="2.4697" text-anchor="start" fill="currentColor">
<tspan>ments.</tspan>
</text>
</g>
</a>
<g transform="translate(84.9345, 3.7790)">
<rect x="-0.0650" y="-2.5000" width="0.1300" height="3.2410" ry="0.0400" fill="currentColor"/>
</g>
<a style="color:inherit;" xlink:href="textedit:///home/alex/Projects/Abridged-Sunday-Matins/Materials/hosts-of-angels.ly:19:13:21">
<g transform="translate(25.7923, 9.3757)">
<text font-family="serif" font-size="2.4697" text-anchor="start" fill="currentColor">
<tspan>are</tspan>
</text>
</g>
</a>
<a style="color:inherit;" xlink:href="textedit:///home/alex/Projects/Abridged-Sunday-Matins/Materials/hosts-of-angels.ly:8:4:12">
<g transform="translate(23.2732, 4.7790)">
<path transform="scale(0.0040, -0.0040)" d="M218 136c66 0 108 -36 108 -89c0 -89 -113 -183 -218 -183c-66 0 -108 36 -108 89c0 89 113 183 218 183z" fill="currentColor"/>
</g>
</a>
<a style="color:inherit;" xlink:href="textedit:///home/alex/Projects/Abridged-Sunday-Matins/Materials/hosts-of-angels.ly:19:10:18">
<g transform="translate(22.5084, 9.3757)">
<text font-family="serif" font-size="2.4697" text-anchor="start" fill="currentColor">
<tspan>ed</tspan>
</text>
</g>
</a>
<g transform="translate(24.5125, 3.7790)">
<rect x="-0.0650" y="-2.5000" width="0.1300" height="3.3139" ry="0.0400" fill="currentColor"/>
</g>
<a style="color:inherit;" xlink:href="textedit:///home/alex/Projects/Abridged-Sunday-Matins/Materials/hosts-of-angels.ly:8:6:14">
<g transform="translate(27.0864, 4.2790)">
<path transform="scale(0.0040, -0.0040)" d="M218 136c66 0 108 -36 108 -89c0 -89 -113 -183 -218 -183c-66 0 -108 36 -108 89c0 89 113 183 218 183z" fill="currentColor"/>
</g>
</a>
<g transform="translate(28.3256, 3.7790)">
<rect x="-0.0650" y="-3.0000" width="0.1300" height="3.3139" ry="0.0400" fill="currentColor"/>
</g>
<a style="color:inherit;" xlink:href="textedit:///home/alex/Projects/Abridged-Sunday-Matins/Materials/hosts-of-angels.ly:20:1:9">
<g transform="translate(50.8734, 9.3757)">
<text font-family="serif" font-size="2.4697" text-anchor="start" fill="currentColor">
<tspan>Teach</tspan>
</text>
</g>
</a>
<a style="color:inherit;" xlink:href="textedit:///home/alex/Projects/Abridged-Sunday-Matins/Materials/hosts-of-angels.ly:19:17:25">
<g transform="translate(30.1346, 9.3757)">
<text font-family="serif" font-size="2.4697" text-anchor="start" fill="currentColor">
<tspan>You,</tspan>
</text>
</g>
</a>
<g transform="translate(32.0034, 3.7790)">
<rect x="-0.0650" y="0.2590" width="0.1300" height="3.0743" ry="0.0400" fill="currentColor"/>
</g>
<a style="color:inherit;" xlink:href="textedit:///home/alex/Projects/Abridged-Sunday-Matins/Materials/hosts-of-angels.ly:19:1:9">
<g transform="translate(16.4675, 9.3757)">
<text font-family="serif" font-size="2.4697" text-anchor="start" fill="currentColor">
<tspan>Bless</tspan>
</text>
</g>
</a>
<a style="color:inherit;" xlink:href="textedit:///home/alex/Projects/Abridged-Sunday-Matins/Materials/hosts-of-angels.ly:8:1:9">
<g transform="translate(18.7858, 4.7790)">
<path transform="scale(0.0040, -0.0040)" d="M218 136c66 0 108 -36 108 -89c0 -89 -113 -183 -218 -183c-66 0 -108 36 -108 89c0 89 113 183 218 183z" fill="currentColor"/>
</g>
</a>
<g transform="translate(9.3358, 4.7790)">
<path transform="scale(0.0040, -0.0040)" d="M266 -635h-6c-108 0 -195 88 -195 197c0 58 53 103 112 103c54 0 95 -47 95 -103c0 -52 -43 -95 -95 -95c-11 0 -21 2 -31 6c26 -39 68 -65 117 -65h4zM461 -203c68 24 113 90 113 164c0 90 -66 179 -173 190c19 -89 48 -242 60 -354zM74 28c0 -145 141 -247 264 -247
c1 0 47 0 82 6c-7 64 -29 203 -63 364c-79 -8 -124 -61 -124 -119c0 -44 25 -91 81 -123c5 -5 7 -10 7 -15c0 -11 -10 -22 -22 -22c-15 0 -126 62 -126 187c0 88 58 174 160 197c-14 58 -29 117 -46 175c-107 -121 -213 -243 -213 -403zM250 553c-29 96 -52 170 -52 346
c0 115 55 224 149 292c6 5 14 5 20 0c68 -80 133 -245 133 -358c0 -143 -86 -255 -180 -364c21 -68 39 -138 56 -207c2 0 7 1 13 1c155 0 256 -128 256 -261c0 -113 -74 -212 -180 -246c3 -35 5 -70 5 -105c0 -19 -1 -39 -2 -58c-7 -119 -88 -225 -202 -228l1 43
c93 2 153 92 159 191c1 18 2 37 2 55c0 31 -1 61 -4 92c-5 -1 -44 -8 -89 -8c-193 0 -333 180 -333 374c0 177 131 306 248 441zM428 916c0 34 1 66 -20 129c-99 -48 -162 -149 -162 -259c0 -52 12 -115 36 -194c80 97 146 198 146 324z" fill="currentColor"/>
</g>
<a style="color:inherit;" xlink:href="textedit:///home/alex/Projects/Abridged-Sunday-Matins/Materials/hosts-of-angels.ly:2:1:9">
<g transform="translate(12.8358, 1.7790)">
<path transform="scale(0.0040, -0.0040)" d="M0 119c0 8 5 15 13 18l46 17v158c0 10 8 19 18 19s19 -9 19 -19v-145l83 31v158c0 10 9 19 19 19s18 -9 18 -19v-145l32 12c2 1 5 1 7 1c11 0 20 -9 20 -20v-60c0 -8 -5 -16 -13 -19l-46 -16v-160l32 11c2 1 5 1 7 1c11 0 20 -9 20 -20v-60c0 -8 -5 -15 -13 -18l-46 -17
v-158c0 -10 -8 -19 -18 -19s-19 9 -19 19v145l-83 -31v-158c0 -10 -9 -19 -19 -19s-18 9 -18 19v145l-32 -12c-2 -1 -5 -1 -7 -1c-11 0 -20 9 -20 20v60c0 8 5 16 13 19l46 16v160l-32 -11c-2 -1 -5 -1 -7 -1c-11 0 -20 9 -20 20v60zM179 95l-83 -30v-160l83 30v160z" fill="currentColor"/>
</g>
</a>
<g transform="translate(15.0858, 3.7790)">
<path transform="scale(0.0040, -0.0040)" d="M250 262c116 0 176 -106 176 -163c0 -40 -30 -72 -67 -72c-31 0 -75 25 -75 75c0 38 27 77 72 77c4 0 9 0 14 -1c-28 37 -72 59 -120 59c-106 0 -113 -73 -113 -186v-51v-51c0 -113 7 -187 113 -187c80 0 139 70 158 151c2 7 7 10 12 10c6 0 13 -4 13 -12
c0 -22 -50 -174 -183 -174c-59 0 -250 19 -250 263c0 62 18 262 250 262z" fill="currentColor"/>
</g>
<a style="color:inherit;" xlink:href="textedit:///home/alex/Projects/Abridged-Sunday-Matins/Materials/hosts-of-angels.ly:8:8:16">
<g transform="translate(31.9384, 3.7790)">
<path transform="scale(0.0040, -0.0040)" d="M314 65c0 23 -19 41 -42 41c-39 0 -204 -110 -231 -143c-7 -8 -10 -18 -10 -28c0 -23 19 -41 42 -41c39 0 203 110 230 143c7 8 11 18 11 28zM262 136c41 0 82 -14 82 -71c0 -26 -16 -112 -74 -151c-25 -17 -87 -50 -187 -50c-41 0 -83 14 -83 71c0 26 16 112 74 151
c25 17 88 50 188 50z" fill="currentColor"/>
</g>
</a>
<g transform="translate(20.0250, 3.7790)">
<rect x="-0.0650" y="-2.5000" width="0.1300" height="3.3139" ry="0.0400" fill="currentColor"/>
</g>
<g transform="translate(39.2915, 3.7790)">
<rect x="-0.0650" y="0.1861" width="0.1300" height="3.1472" ry="0.0400" fill="currentColor"/>
</g>
<a style="color:inherit;" xlink:href="textedit:///home/alex/Projects/Abridged-Sunday-Matins/Materials/hosts-of-angels.ly:8:17:25">
<g transform="translate(42.2105, 4.2790)">
<path transform="scale(0.0040, -0.0040)" d="M218 136c66 0 108 -36 108 -89c0 -89 -113 -183 -218 -183c-66 0 -108 36 -108 89c0 89 113 183 218 183z" fill="currentColor"/>
</g>
</a>
<g transform="translate(43.4497, 3.7790)">
<rect x="-0.0650" y="-3.0000" width="0.1300" height="3.3139" ry="0.0400" fill="currentColor"/>
</g>
<a style="color:inherit;" xlink:href="textedit:///home/alex/Projects/Abridged-Sunday-Matins/Materials/hosts-of-angels.ly:8:19:27">
<g transform="translate(45.2127, 4.7790)">
<path transform="scale(0.0040, -0.0040)" d="M314 65c0 23 -19 41 -42 41c-39 0 -204 -110 -231 -143c-7 -8 -10 -18 -10 -28c0 -23 19 -41 42 -41c39 0 203 110 230 143c7 8 11 18 11 28zM262 136c41 0 82 -14 82 -71c0 -26 -16 -112 -74 -151c-25 -17 -87 -50 -187 -50c-41 0 -83 14 -83 71c0 26 16 112 74 151
c25 17 88 50 188 50z" fill="currentColor"/>
</g>
</a>
<g transform="translate(46.5251, 3.7790)">
<rect x="-0.0650" y="-2.5000" width="0.1300" height="3.2410" ry="0.0400" fill="currentColor"/>
</g>
<a style="color:inherit;" xlink:href="textedit:///home/alex/Projects/Abridged-Sunday-Matins/Materials/hosts-of-angels.ly:9:1:9">
<g transform="translate(50.8734, 3.7790)">
<path transform="scale(0.0040, -0.0040)" d="M314 65c0 23 -19 41 -42 41c-39 0 -204 -110 -231 -143c-7 -8 -10 -18 -10 -28c0 -23 19 -41 42 -41c39 0 203 110 230 143c7 8 11 18 11 28zM262 136c41 0 82 -14 82 -71c0 -26 -16 -112 -74 -151c-25 -17 -87 -50 -187 -50c-41 0 -83 14 -83 71c0 26 16 112 74 151
c25 17 88 50 188 50z" fill="currentColor"/>
</g>
</a>
<a style="color:inherit;" xlink:href="textedit:///home/alex/Projects/Abridged-Sunday-Matins/Materials/hosts-of-angels.ly:19:22:30">
<g transform="translate(35.9362, 9.3757)">
<text font-family="serif" font-size="2.4697" text-anchor="start" fill="currentColor">
<tspan>O</tspan>
</text>
</g>
</a>
<a style="color:inherit;" xlink:href="textedit:///home/alex/Projects/Abridged-Sunday-Matins/Materials/hosts-of-angels.ly:8:14:22">
<g transform="translate(39.2265, 3.7790)">
<path transform="scale(0.0040, -0.0040)" d="M218 136c66 0 108 -36 108 -89c0 -89 -113 -183 -218 -183c-66 0 -108 36 -108 89c0 89 113 183 218 183z" fill="currentColor"/>
</g>
</a>
<a style="color:inherit;" xlink:href="textedit:///home/alex/Projects/Abridged-Sunday-Matins/Materials/hosts-of-angels.ly:19:24:32">
<g transform="translate(39.2265, 9.3757)">
<text font-family="serif" font-size="2.4697" text-anchor="start" fill="currentColor">
<tspan>Lord.</tspan>
</text>
</g>
<g transform="translate(46.0747, 9.3757)">
<text font-family="serif" font-size="2.4697" text-anchor="start" fill="currentColor">
<tspan>*</tspan>
</text>
</g>
</a>
<g transform="translate(37.4452, 3.7790)">
<rect x="-0.0650" y="-3.0000" width="0.1300" height="3.3139" ry="0.0400" fill="currentColor"/>
</g>
<a style="color:inherit;" xlink:href="textedit:///home/alex/Projects/Abridged-Sunday-Matins/Materials/hosts-of-angels.ly:8:11:19">
<g transform="translate(36.2060, 4.2790)">
<path transform="scale(0.0040, -0.0040)" d="M218 136c66 0 108 -36 108 -89c0 -89 -113 -183 -218 -183c-66 0 -108 36 -108 89c0 89 113 183 218 183z" fill="currentColor"/>
</g>
</a>
</svg>
